<?xml version="1.0" encoding="UTF-8"?>
<!-- Generator: Adobe Illustrator 21.1.0, SVG Export Plug-In . SVG Version: 6.00 Build 0)  -->
<svg version="1.1" id="Layer_1" xmlns="http://www.w3.org/2000/svg" xmlns:xlink="http://www.w3.org/1999/xlink" x="0px" y="0px" viewBox="0 0 839 701" style="enable-background:new 0 0 839 701;" xml:space="preserve">
<style type="text/css">
	.st0{fill:#14142B;}
	.st1{fill:#FFFFFF;}
	.st2{fill:#FFD5BD;}
	.st3{fill:#171347;}
	.st4{fill:#FF3951;}
	.st5{fill:#F5F7FC;}
	.st6{opacity:0.95;fill:url(#SVGID_1_);}
	.st7{fill:#96BFE6;}
	.st8{opacity:0.95;fill:url(#SVGID_2_);}
	.st9{fill:#4598E6;}
	.st10{fill:url(#SVGID_3_);}
	.st11{opacity:0.95;fill:url(#SVGID_4_);}
	.st12{fill:#385369;}
	.st13{fill:#EEA886;}
	.st14{fill:#434343;}
	.st15{fill:#A77860;}
	.st16{fill:#0E2D3D;}
	.st17{fill:#163342;}
	.st18{fill:#1D3B54;}
	.st19{fill:#285173;}
	.st20{fill:#FFBF55;}
	.st21{fill:#183C59;}
	.st22{fill:#616161;}
	.st23{fill:#E0CEC7;}
	.st24{fill:#EEA987;}
	.st25{fill:url(#SVGID_5_);}
	.st26{fill:url(#SVGID_6_);}
	.st27{fill:url(#SVGID_7_);}
	.st28{fill:url(#SVGID_8_);}
	.st29{fill:url(#SVGID_9_);}
	.st30{fill:url(#SVGID_10_);}
	.st31{fill:url(#SVGID_11_);}
	.st32{opacity:0.95;fill:url(#SVGID_12_);}
	.st33{fill:#344052;}
	.st34{fill:#EB4747;}
	.st35{fill:#393D63;}
	.st36{fill:#DECBC4;}
	.st37{fill:#E8734D;}
	.st38{fill:#3C4145;}
	.st39{fill:#51565C;}
	.st40{fill:#F5E2D9;}
	.st41{fill:#D44040;}
	.st42{fill:#2D3133;}
	.st43{fill:#292C47;}
	.st44{fill:#424773;}
	.st45{fill:#3A3F47;}
	.st46{fill:#E2D2CA;}
	.st47{fill:#323657;}
	.st48{fill:#FFDF69;}
	.st49{fill:#AB9546;}
	.st50{fill:url(#SVGID_13_);}
	.st51{fill:url(#SVGID_14_);}
	.st52{fill:url(#SVGID_15_);}
	.st53{fill:url(#SVGID_16_);}
	.st54{fill:url(#SVGID_17_);}
	.st55{fill:url(#SVGID_18_);}
	.st56{fill:url(#SVGID_19_);}
	.st57{fill:url(#SVGID_20_);}
</style>
<g>
	<linearGradient id="SVGID_1_" gradientUnits="userSpaceOnUse" x1="425.1452" y1="500.618" x2="409.1644" y2="210.961">
		<stop offset="0" style="stop-color:#D1D7E0"/>
		<stop offset="1" style="stop-color:#EBEBFF"/>
	</linearGradient>
	<path class="st6" d="M460.1,339.6h-99.2c-30,0-54.3-24.3-54.3-54.3v-99.2c0-30,24.3-54.3,54.3-54.3h99.2c30,0,54.3,24.3,54.3,54.3   v99.2C514.5,315.3,490.1,339.6,460.1,339.6z"/>
	<rect x="362.4" y="292.3" class="st7" width="96.2" height="4.8"/>
	<rect x="376" y="307.3" class="st7" width="69" height="4.8"/>
	<linearGradient id="SVGID_2_" gradientUnits="userSpaceOnUse" x1="690.8896" y1="586.7878" x2="690.8896" y2="283.9087">
		<stop offset="0" style="stop-color:#D1D7E0"/>
		<stop offset="1" style="stop-color:#EBEBFF"/>
	</linearGradient>
	<path class="st8" d="M764,537.8H617.8c-38.2,0-69.1-30.9-69.1-69.1V273c0-38.2,30.9-69.1,69.1-69.1H764c38.2,0,69.1,30.9,69.1,69.1   v195.7C833.1,506.8,802.2,537.8,764,537.8z"/>
	<g>
		<rect x="677.6" y="400.8" class="st9" width="22.6" height="4.2"/>
	</g>
	<g>
		<rect x="592" y="439.1" class="st7" width="131.3" height="8.1"/>
		<rect x="592" y="478" class="st7" width="106.2" height="8.1"/>
		<rect x="592" y="458.6" class="st7" width="62.2" height="8.1"/>
	</g>
	<g>
		<path class="st9" d="M757.6,237.2v4.1h24.1v22.6h4.1v-26.7H757.6z M594.2,263.8h4.1v-22.6h24.1v-4.1h-28.1V263.8z M781.7,380.3    v22.6h-24.1v4.1h28.1v-26.7H781.7z M598.3,380.3h-4.1V407h28.1v-4.1h-24.1V380.3z"/>
	</g>
	<g>
		<g>
			<path class="st9" d="M773,486.7c-13.3,0-24.1-10.8-24.1-24.1c0-13.3,10.8-24.1,24.1-24.1s24.1,10.8,24.1,24.1     C797.1,475.9,786.3,486.7,773,486.7z M773,443.2c-10.7,0-19.4,8.7-19.4,19.4c0,10.7,8.7,19.4,19.4,19.4     c10.7,0,19.4-8.7,19.4-19.4C792.4,451.9,783.7,443.2,773,443.2z"/>
		</g>
		<g>
			<polygon class="st9" points="771.5,472.1 760.6,461.1 763.8,457.8 771.5,465.5 782.2,454.8 785.5,458.1    "/>
		</g>
	</g>
	<linearGradient id="SVGID_3_" gradientUnits="userSpaceOnUse" x1="6.6585" y1="674.3008" x2="787.4887" y2="674.3008">
		<stop offset="5.208330e-03" style="stop-color:#1A2257"/>
		<stop offset="1" style="stop-color:#5E60F2"/>
	</linearGradient>
	<ellipse class="st10" cx="397.1" cy="674.3" rx="390.4" ry="18.3"/>
	<linearGradient id="SVGID_4_" gradientUnits="userSpaceOnUse" x1="410.5289" y1="399.7532" x2="410.5289" y2="178.2861">
		<stop offset="0" style="stop-color:#D1D7E0"/>
		<stop offset="1" style="stop-color:#EBEBFF"/>
	</linearGradient>
	<rect x="340.5" y="139.5" class="st11" width="140.1" height="120.2"/>
	<g>
		<path class="st12" d="M464,212.7c-4.6-12.2-15.7-17.8-20.9-19.6c-1.9-0.6-5.2-1.7-8.7-2.8c-6.3-2-13.2-4.3-13.2-4.3h-21.8    c0,0-7.6,2.5-15.6,5.3c0,0,0,0,0,0c-7.4,2.6-15.2,5.4-17.8,6.7c-5.5,2.7-14.7,22.3-16.6,24.5c-1,1.2-5.2,8.8-9.4,17.3h23.5    c2.5-4.3,4.4-7.6,4.4-7.6s1.5,3.3,3.3,7.6h75.3c1.2-5,1.9-11.3,1.9-11.3s4,5.5,8.4,11.3h21.7C473.2,231.1,466.6,219.6,464,212.7z"/>
		<g>
			<path class="st13" d="M412.9,126.1c0,0,17.1,2.7,14.5,29.4c-2.6,26.7-17.6,24.5-18.7,24.5c-1,0-15.1,0.5-16.2-32.1     C392.5,147.9,392,123.8,412.9,126.1z"/>
		</g>
		<g>
			<path class="st13" d="M427.6,148c0,0,1.9-2,2.6,0c0.7,2-2.5,11-2.7,11.4c0,0-0.3,0.8-0.8,0.4C426.3,159.3,427.6,148,427.6,148z"/>
		</g>
		<g>
			<path class="st13" d="M392.9,147.6c0,0-1.8-2-2.6,0c-0.7,2,2.3,11.1,2.4,11.5c0,0,0.3,0.8,0.8,0.4     C394.1,159,392.9,147.6,392.9,147.6z"/>
		</g>
		<g>
			<path class="st14" d="M427.6,152.1l-2.4,3.3c0,0,0.1-7.2-0.3-8.3c-0.4-1.1-1-4.5-1.3-5.4c-0.3-0.8-14.6-4.8-27.3,1.2     c0,0,0.6,5.1-0.7,5.6c-1.2,0.5-0.6,8.4-0.6,8.4l-2-2.3c0,0-3.1-20.5-2.3-22.7c0.8-2.1,3.2-15,29.1-7.4c0,0,8.1-1.7,9.7,3.9     C431.1,134,427.6,152.1,427.6,152.1z"/>
		</g>
		<path class="st13" d="M423.3,185.6c0,0-2.2-1.1-2.2-1.1c-1.1-2.4-0.3-12.4-0.3-12.4s-21.7-5.5-21.1-1.3c0.6,4.2-1.9,14-1.9,14    l-11.1,5.5c0,0,11.9,31.9,25.5,27.8c13.6-4.1,18.8-28.9,18.8-28.9L423.3,185.6z"/>
		<path class="st15" d="M400.1,175.5c0,0,3.5,4.5,9.6,4.5c4,0,6.9-1.1,10.8-5c0,0-1.7,7.4-10.8,8.1    C409.7,183.1,403.1,183.9,400.1,175.5z"/>
	</g>
	<g>
		<g>
			<g>
				<g>
					<g>
						<g>
							<path class="st16" d="M337.4,282.5c0,0,12.5,6.1,9.4,22.8c-3.1,16.7-4.5,18.9-1,25.4c3.5,6.5,7.6,34.3,4.4,39.6         c-3.1,5.3-38.6-23.1-43.5-47c-4.9-23.8,3.1-34.4,6-38.4C315.5,281,326.3,276.9,337.4,282.5z"/>
						</g>
					</g>
				</g>
			</g>
		</g>
		<g>
			<path class="st17" d="M332.6,669.4h2.8V656c0,0,5.6,3.7,9.1,8.8c3.5,5.1,8.3,4.7,15.6,4.4c7.3-0.3,7-3.3,6.3-7.4     c-0.7-4.2-8.1-5.5-10.5-6.1c-2.4-0.7-7.9-10.1-9.6-12.3c-2.4-3.1-3.7-6.1-3.7-6.1s-1.4-5.6-8.1,0c-6.8,5.6-4.8,16.3-4,17.3     C331.3,655.5,332.6,669.4,332.6,669.4z"/>
		</g>
		<g>
			<path class="st13" d="M346.9,655.7c2.5,1.6,9.1,0,9.1,0c-1.9-2.4-13.3-18.5-13.3-18.5c-6.9-4-9.7,1.5-9.7,1.5     C335.9,639.6,344.4,654.1,346.9,655.7z"/>
		</g>
		<g>
			<g>
				<g>
					<g>
						<path class="st13" d="M420,408.7c0,0,4.5,0.9,6.1-1.3c1.3-1.8,4.3-3.2,5.3-3.6c1.2-0.6,4.4-3.8,5.1-2.2c0.7,1.6-4.9,5.5-6,6.6        c-1,1.1,5.6,1.5,6.7,2.6c1.1,1-0.3,11.9-4.8,11.1c-4.5-0.8-8.7-4.7-9.6-4.7c-0.8,0-3.3-0.5-3.3-0.5L420,408.7z"/>
					</g>
				</g>
			</g>
		</g>
		<g>
			<g>
				<g>
					<g>
						<path class="st13" d="M436.2,410.3c0,0,13.6,3.5,14.3,4.5c0.7,1,0.5,1.7-0.8,1.4c-1.3-0.3-13.2-3-13.2-3s15.4,6.9,16.1,7.5        c0.4,0.4,0.1,1.8-0.6,1.7c-0.7-0.1-16.3-6-16.3-6s14.4,6.4,14.8,7.2c0.4,0.7-0.3,1.9-1.4,1.5c-1.1-0.4-14.8-5.6-14.8-5.6        s10.2,5.3,10.2,6.2c0,0.5-0.3,1.8-2.8,0.3c-2.6-1.5-9-4.3-9-4.3L436.2,410.3z"/>
					</g>
				</g>
			</g>
		</g>
		<g>
			<path class="st17" d="M295.8,670.3h1.7v-9.8c0,0,3.1,3.2,4.5,7.9c1.4,4.7,6.5,6.1,14.3,5.9c7.8-0.2,7.9-3.3,7.2-7.9     c-0.7-4.6-7.2-7-7.2-7c-2.9-2.6-10.3-13.5-10.3-13.5s-4.7-1.3-8.4,1.7c-3.7,3-2.5,9.7-2.4,11.4     C295.4,660.8,295.8,670.3,295.8,670.3z"/>
		</g>
		<g>
			<path class="st18" d="M301.2,436.2c0,0-9.2,12-11.7,26.3c-2.5,14.3,1.5,62.1,1.4,69.1c-0.1,7-6.7,24.6-5.4,37.8     c1.3,13.3,6.5,79.3,6.5,79.3l14.2-2.8c0,0-0.8-67.3,0-72.9c0.8-5.6,2.5-25.9,2.8-28.2c0.3-2.3,20.8-62.5,20.8-72.8     C329.7,461.8,323.5,419.4,301.2,436.2z"/>
		</g>
		<g>
			<path class="st18" d="M347.6,440.9c0,0,15.2,57.9,17,66c1.8,8,4.4,14.6,4.4,18.1c0,7.9-2.9,20.6-2.9,20.6l-19.3,92.2h-18.4     c0,0,10.2-55.3,10.5-66.1c0.3-10.8,8.6-26.2,7-30.8c-1.6-4.6-26.4-57.5-26.4-57.5S300.8,424.1,347.6,440.9z"/>
		</g>
		<g>
			<path class="st13" d="M316.4,659.4l-10.3-13.5l-8.4,1.7c0,0,2.3,6,6.3,10.6C308.9,663.6,316.4,659.4,316.4,659.4z"/>
		</g>
		<g>
			<g>
				<path class="st19" d="M341.3,342.4c0,0,6.3,0.6,11,5.7c4.7,5.1,9.2,13.1,10.4,15.8c1.2,2.7,18.6,27.7,19.5,28.3      c0.9,0.6,9.6,3.5,15.4,5.4c8.9,3,26.8,9.5,26.8,9.5l-3.6,11.2c0,0-33.6-11-42.1-13.1c-10.3-2.5-34-33-34-33      S327.2,351.7,341.3,342.4z"/>
			</g>
		</g>
		<g>
			<g>
				<path class="st20" d="M330.4,338c0,0,8.1,3.8,10.9,4.4c2.8,0.6,13.7,14.8,15.7,19.9c1.9,5.2,0,12.9-3.9,22.1      c-3.9,9.1-0.2,12.2-2,21.3c-1.8,9.1-1.2,43.2-0.9,48.3c0.3,5.1-52.7,12.7-63.2,3.5c0,0,7.1-30.7,15.5-39.5      c1.8-1.9,1.6-14.5,0.4-17.7c-1.2-3.2-15.2-26.7-15.2-26.7s-1-23.9,5.1-28.6c5.3-4.1,19.7-5.6,22.3-6.5      C317.6,337.7,325.1,337.3,330.4,338z"/>
			</g>
		</g>
		<g>
			<g>
				<path class="st13" d="M334.3,328.7c0,0-0.2,2.2-0.5,5.2c-0.1,1.2-0.2,2.5-0.3,3.9c-0.3,4-0.6,8.4-0.4,10.6c0,0-8.4,8.4-18-9.9      c0,0,4-7.5,1-17.8C313,310.5,334.3,328.7,334.3,328.7z"/>
			</g>
		</g>
		<g>
			<path class="st21" d="M357.9,387.8c0,0,2-13.5-0.1-21.7c0,0,0,7.1-3.9,17.1L357.9,387.8z"/>
		</g>
		<g>
			<path class="st13" d="M308.5,339.9c0,0,5.8,17.1,21.7,15.9c15.9-1.3,7.5-14.5,7.5-14.5s-4-2.3-5.1-2.5     c-1.1-0.2-17.6-0.4-17.6-0.4L308.5,339.9z"/>
		</g>
		<g>
			<path class="st19" d="M337.8,341.3c0,0,8.3,23.1,8.3,46.5c0,23.5,0.7,61.8,3.6,73.8c2.9,12.1,11.2,49.5,11.2,49.5l6.5-3.4     c0,0-15.6-59.6-16.8-63.9c-1.2-4.3,0.9-49.7,2-53.5c1.1-3.8,5.9-20.7,5.1-25.4c-0.9-5.9-6.5-14.7-15.4-22.2L337.8,341.3z"/>
		</g>
		<g>
			<path class="st19" d="M311.7,339.1c0,0,5.2,16.6,7.8,37.8c2.6,21.2-8.1,119.8-15.2,142.2l-27.8-4.5c0,0,6-69.7,14.1-82.4     c8.1-12.7,10.7-23.9,1.9-50.4c-8.8-26.5,3.8-39.6,3.8-39.6S309.2,339.4,311.7,339.1z"/>
		</g>
		<g>
			<polygon class="st22" points="341.6,409.5 308,467.7 270.6,446.1 302.8,387    "/>
		</g>
		<g>
			<polygon class="st23" points="337.6,411.5 307.7,463.2 274.5,444 303,391.5    "/>
		</g>
		<g>
			<polygon class="st22" points="326.5,406.8 328.6,403.2 315.2,395.4 312.6,398.8    "/>
		</g>
		<g>
			<g>
				<g>
					<g>
						<g>
							<g>
								<path class="st13" d="M324.9,448.2c0,0-1.5,0-2.2-0.3c0,0-1.2-0.7-2-1.1c-0.3-0.1-0.5-0.3-0.7-0.3c-0.7-0.2-2.3-0.6-3.8-1.6          c-1.5-1-6.8-7.1-6.8-7.1l2.5-3.8l1.8-3.9c0,0,11.1,0.7,12.6,1.5c0.1,0.1,0.3,0.2,0.4,0.3c1.2,0.8,1.8,1.9,2.3,2.4          c0.2,0.2,2.2,2.1,2.1,3c-0.1,1.2-0.6,1.9-1.3,2.3c0,0-0.3,2.3-1.4,3.3c0,0-0.2,2.1-1.9,3          C326.6,445.8,326.2,447.9,324.9,448.2z"/>
							</g>
						</g>
					</g>
				</g>
			</g>
		</g>
		<g>
			<g>
				<path class="st19" d="M302.1,342.4c0,0-10.2-2.9-16.1,8.3c-5.9,11.3-5.8,16.1-6.6,21.6c-0.7,5.2-4.1,19.4-4.4,20.8      c-0.3,1.5-7.9,18.9-4.4,25c3.5,6.1,38.8,24.2,38.6,25.5c-0.2,1.4,6.1-13.6,6.1-13.6s-14.3-8-16.7-10.4      c-3.8-4-11.8-8.3-10.2-13.2c1.9-5.8,7.8-25.4,9.1-28.3C299,375.2,310.7,346.1,302.1,342.4z"/>
			</g>
		</g>
		<g>
			<g>
				<g>
					<g>
						<g>
							<path class="st24" d="M335.6,284.4c0,0,18.2,5.7,8.3,37.1c-9.9,31.4-34.7-3.6-32.1-22.8C314.3,279.6,335.6,284.4,335.6,284.4         z"/>
						</g>
					</g>
				</g>
			</g>
		</g>
		<g>
			<g>
				<g>
					<g>
						<g>
							<path class="st16" d="M345.7,302.7c0,0-9,8.9-24.2,10c0,0-5.8,6.8-6.3,9.5c0,0-13.5-23,3.1-36.8         C335,271.6,351.8,297,345.7,302.7z"/>
						</g>
					</g>
				</g>
			</g>
		</g>
		<g>
			<g>
				<g>
					<g>
						<g>
							<path class="st24" d="M321.7,313.3c-0.1-2.3-1.5-7.5-4.9-6c-3.4,1.5,0.2,12,2.5,11.4C319.3,318.6,322,318.7,321.7,313.3z"/>
						</g>
					</g>
				</g>
			</g>
		</g>
		<g>
			<path class="st15" d="M333.8,333.9c-0.1,1.2-0.2,2.5-0.3,3.9c0,0-8-0.5-13.4-12.4C320.4,325.9,326.3,334.5,333.8,333.9z"/>
		</g>
	</g>
	<g>
		<g>
			
				<linearGradient id="SVGID_5_" gradientUnits="userSpaceOnUse" x1="-4817.2056" y1="526.5769" x2="-4767.0059" y2="526.5769" gradientTransform="matrix(-1 0 0 1 -4633.543 0)">
				<stop offset="0" style="stop-color:#3076A1"/>
				<stop offset="1" style="stop-color:#48C9B6"/>
			</linearGradient>
			<path class="st25" d="M134.6,621c11.7-8.2,25.3-65.4,26.1-99.4c0.4-17.4,5.6-24.7,10.1-31.1c4.3-6.1,8.1-11.4,5.9-23.6     c-4.2-23.2,6.8-33.2,6.9-33.3l-1.3-1.5c-0.5,0.4-11.9,10.8-7.5,35.1c2,11.4-1.3,16.1-5.6,22.1c-4.5,6.3-10,14.2-10.5,32.2     c-0.9,36.5-14.8,90.5-25.3,97.9L134.6,621z"/>
		</g>
		<g>
			
				<linearGradient id="SVGID_6_" gradientUnits="userSpaceOnUse" x1="-4778.2021" y1="568.0145" x2="-4686.9404" y2="568.0145" gradientTransform="matrix(-1 0 0 1 -4633.543 0)">
				<stop offset="0" style="stop-color:#3076A1"/>
				<stop offset="1" style="stop-color:#48C9B6"/>
			</linearGradient>
			<path class="st26" d="M110.1,604.4c-1.1-2.5-2.2-5.1-3.5-7.8c-6.7-14.1-12.6-16.4-22.3-20.2c-2.4-0.9-5.1-2-8.1-3.3     c-14-6.3-11.3-15.6-8.9-23.8c0.3-1.1,0.7-2.3,1-3.4c1.2-4.8-1.1-7.2-4.7-10.9c-2.7-2.7-6-6.1-8.5-11.4c-2.8-5.8-1.4-9,0.3-10.6     c3.6-3.4,11.7-2.7,19.5,1.5c2.4,1.3,4.4,3.4,6.5,5.6c4.9,5.2,11.1,11.6,26.6,11.7c8.9,0,13.7,1.3,16.2,4.1     c2.8,3.2,2.3,8,1.6,14.6c-0.3,2.3-0.5,4.9-0.7,7.7c-1.1,16.8,8.8,28.9,8.9,29c5.9,7,13.2,21.7,10.1,30.6     c-1.3,3.8-4.3,6.1-8.8,7.1c-1.8,0.4-3.4,0.5-4.9,0.5C119.3,625.3,115.4,616.3,110.1,604.4z M73.9,516.1     c-6.9-3.8-14.3-4.5-17.2-1.8c-2.2,2.1-1.2,5.7,0.1,8.3c2.4,5.1,5.5,8.2,8.2,10.9c3.7,3.8,6.7,6.8,5.2,12.7     c-0.3,1.2-0.6,2.3-1,3.5c-2.4,8.2-4.6,15.9,7.8,21.5c2.9,1.3,5.6,2.4,8,3.3c9.9,3.9,16.4,6.4,23.4,21.2c1.3,2.7,2.4,5.3,3.6,7.8     c6,13.7,9.7,21.9,22.9,19.3c3.8-0.8,6.2-2.7,7.3-5.8c2.8-7.9-3.9-21.8-9.7-28.8c-0.4-0.5-10.5-12.8-9.4-30.3     c0.2-2.9,0.5-5.5,0.7-7.8c0.7-6.1,1.2-10.6-1.1-13.1c-2.1-2.3-6.6-3.4-14.8-3.4c-16.3-0.1-22.8-6.8-28-12.3     C77.8,519.1,76,517.3,73.9,516.1L73.9,516.1z"/>
		</g>
		<g>
			
				<linearGradient id="SVGID_7_" gradientUnits="userSpaceOnUse" x1="-4770.4009" y1="581.2858" x2="-4701.9033" y2="581.2858" gradientTransform="matrix(-1 0 0 1 -4633.543 0)">
				<stop offset="0" style="stop-color:#3076A1"/>
				<stop offset="1" style="stop-color:#48C9B6"/>
			</linearGradient>
			<path class="st27" d="M134.9,636.4l1.9-0.1c-0.1-1.8-2.5-44.5-19.7-57c-18.8-13.7-24.7-28.4-27.5-38.3     c-3.3-11.6-20.2-14.8-21-14.9l-0.3,1.9c0.2,0,16.5,3,19.4,13.5c2.9,10.2,9,25.3,28.3,39.3C132.5,592.9,134.9,636,134.9,636.4z"/>
		</g>
		<g>
			
				<linearGradient id="SVGID_8_" gradientUnits="userSpaceOnUse" x1="-4853.2007" y1="511.7028" x2="-4750.3389" y2="511.7028" gradientTransform="matrix(-1 0 0 1 -4633.543 0)">
				<stop offset="0" style="stop-color:#3076A1"/>
				<stop offset="1" style="stop-color:#48C9B6"/>
			</linearGradient>
			<path class="st28" d="M131.7,646c-4-2-3.9-10.1-3.7-22.3c0.3-15.4,0.7-36.6-7.4-56c-8.6-20.7-0.9-26.7,6.5-32.5     c8.3-6.5,16.1-12.7,1.1-40.6c-6.9-12.8-9.1-21.5-6.9-27.3c2.2-5.7,8.3-8,14.7-10.3c11.1-4.1,23.8-8.7,22.1-32.3     c-0.5-7.2,0.3-11.7,2.7-14c2.5-2.5,6.2-2.2,10.6-1.9c6.5,0.5,13.9,1,20.3-7.4c0.7-2.1,6.8-20.8,14.2-24c1.5-0.7,3.1-0.7,4.5,0     l0,0c5.1,2.4,8,5.3,9,8.8c1.7,6.1-2.7,12.9-7.9,20.9c-8.1,12.5-17.3,26.6-7.8,43.4c12.6,22.2,5.9,30-3.3,40.8     c-5.3,6.2-11.2,13.2-15.2,24.6c-3.2,9.2,2.3,17.9,7.6,26.4c6.6,10.6,13.5,21.6-1,31.1c-23.9,15.7-47.5,67.1-47.8,67.6l-0.1,0.2     l-0.2,0.1c-4.4,3.5-7.6,5.1-10,5.1C132.9,646.4,132.3,646.3,131.7,646z M190.7,571.7c12.9-8.5,7.1-17.7,0.4-28.5     c-5.3-8.4-11.3-18-7.8-28c4.1-11.7,10.2-18.9,15.6-25.2c9-10.6,15-17.5,3-38.6c-10.1-17.8-0.2-33.1,7.8-45.4     c4.9-7.5,9.1-14.1,7.7-19.3c-0.8-2.9-3.4-5.4-8-7.6l0,0c-0.9-0.4-1.9-0.4-2.9,0c-6.8,3-13.1,22.8-13.1,23l-0.1,0.2l-0.1,0.1     c-7.1,9.4-15.4,8.7-22.1,8.3c-4-0.3-7.1-0.5-9.1,1.4c-1.9,1.9-2.6,5.9-2.1,12.5c1.7,25-12.2,30.1-23.4,34.2     c-6.3,2.3-11.7,4.3-13.6,9.2c-2,5.2,0.2,13.4,6.8,25.7c15.8,29.3,7,36.3-1.6,43c-7.2,5.6-13.9,11-5.9,30.3     c8.2,19.8,7.8,41.2,7.6,56.8c-0.2,10.7-0.3,19.1,2.6,20.5c1.7,0.9,5-0.6,9.8-4.3C144.2,635.8,166.9,587.4,190.7,571.7z"/>
		</g>
		<linearGradient id="SVGID_9_" gradientUnits="userSpaceOnUse" x1="158.4127" y1="623.9844" x2="98.5235" y2="444.3161">
			<stop offset="0" style="stop-color:#3076A1"/>
			<stop offset="1" style="stop-color:#48C9B6"/>
		</linearGradient>
		<path class="st29" d="M93.9,422.1c12.2-4.2,9.6,19.3,14.8,36.7c5.1,17.4,57.2,7.6,35.4,51.1s27.7,14.5,12.9,52.5    c-14.8,37.9-1.3,78.5-17.4,68.2c-16.1-10.3-9-58.1-25.8-63.8c-16.7-5.7-19.4-12.3-2.9-27.7c16.6-15.4-43.4-30.8-28.6-61.9    C97.1,445.9,79.8,426.9,93.9,422.1z"/>
		<g>
			<path class="st1" d="M134,628c1.5-6.5,14.6-63.7,2.4-70.6c-10.8-6.1-10.5-29.8-8.8-52.1c1.5-19.8-23.9-29.1-25-29.4l-0.6,1.8     c0.3,0.1,25.1,9.1,23.7,27.5c-1.7,23-1.9,47.3,9.8,54c9.3,5.2,0.7,51.2-3.3,68.4L134,628z"/>
		</g>
		<linearGradient id="SVGID_10_" gradientUnits="userSpaceOnUse" x1="112.0765" y1="741.3222" x2="142.0213" y2="612.2361">
			<stop offset="0" style="stop-color:#C9C4C1"/>
			<stop offset="1" style="stop-color:#FFF6DE"/>
		</linearGradient>
		<polygon class="st30" points="179.9,607.6 162.5,673.6 123.7,673.6 106.3,607.6   "/>
		
			<linearGradient id="SVGID_11_" gradientUnits="userSpaceOnUse" x1="86.7536" y1="640.5874" x2="160.3663" y2="640.5874" gradientTransform="matrix(1 0 0 1 19.5338 0)">
			<stop offset="0" style="stop-color:#C9C4C1"/>
			<stop offset="1" style="stop-color:#FFF6DE"/>
		</linearGradient>
		<path class="st31" d="M179.9,607.6c0,0-38.3,7.2-38.3,65.9h-18l-17.4-65.9H179.9z"/>
	</g>
	<linearGradient id="SVGID_12_" gradientUnits="userSpaceOnUse" x1="611.2312" y1="212.5204" x2="611.2312" y2="87.7648">
		<stop offset="0" style="stop-color:#D1D7E0"/>
		<stop offset="1" style="stop-color:#EBEBFF"/>
	</linearGradient>
	<path class="st32" d="M651.6,192.3h-80.8c-19.8,0-35.9-16.1-35.9-35.9V90.7c0-19.8,16.1-35.9,35.9-35.9h80.8   c19.8,0,35.9,16.1,35.9,35.9v65.7C687.6,176.2,671.5,192.3,651.6,192.3z"/>
	<g>
		<rect x="604.6" y="166.3" class="st9" width="12.1" height="2.2"/>
	</g>
	<g>
		<g>
			<g>
				<g>
					<path class="st33" d="M621.6,42.7c0,0,9.8,5.4,6.7,18.5c-3.1,13.2-4.3,14.9-1.8,20.2c2.5,5.3,4.7,27.6,2,31.7       c-2.7,4.1-29.9-19.9-32.9-39.1c-3-19.2,3.8-27.3,6.2-30.4C604.2,40.7,613,37.9,621.6,42.7z"/>
				</g>
			</g>
		</g>
		<g>
			<path class="st13" d="M639.9,151.6h-10.4c-0.5-5.2-1-8.7-0.9-9.3c0.2-0.9-10.4-28.5-11.4-30.8c-1-2.3-4.9-8.4-5.4-14.2     c-0.5-5.8,7-8.1,7-8.1c10.2,1.8,13.6,15.9,13.6,15.9s4.3,28.5,6.4,36.6C639.5,143.7,639.8,147.4,639.9,151.6z"/>
		</g>
		<path class="st34" d="M634.7,112l-15.6,6.6c0,0-14.3-35.5-2.3-31.5C628.7,91,634.1,98.4,634.7,112z"/>
		<g>
			<path class="st34" d="M631.2,128.7c-0.5,3.5-2.3,16-1.9,19.4c0.1,0.6,0.3,1.8,0.6,3.6h-37.5c1-3.6,1.9-6.7,2.5-8.5     c1.8-6,0.1-7.7-0.8-12.5c-0.4-1.9-1.6-5.5-3-9.5c-0.5-1.4-0.9-2.8-1.4-4.2c-1.6-5.1-2.4-10.3-2.9-13.4     c-2.3-14.4,8.8-15.8,8.8-15.8c4.1-0.8,11.3-3,11.3-3l11.3,2.3c0,0,1.1,0.4,2.6,1.6c0,0,0,0,0,0c0.8,0.6,1.6,1.3,2.5,2.2     c1.2,1.3,3.7,4.9,6.1,8.9c0.7,1.2,1.5,2.5,2.2,3.7c2.3,4,3.9,7.2,3.9,10.8C635.6,117.7,631.7,125.2,631.2,128.7z"/>
		</g>
		<path class="st13" d="M618.2,87c0,0,7.1,12.1,4.4,13c-2.6,0.9-16.5-2.1-21.9-13.6C600.8,86.4,609.9,82.3,618.2,87z"/>
		<path class="st13" d="M617.2,92.5c0,0-6.3,2.7-12-6.1c0,0,1.5-9.9-1.7-15.7c-3.2-5.7,14.1,6.9,14.1,6.9s-0.3,1.2-0.6,2.9    c-0.1,0.9-0.3,1.9-0.4,3c-0.1,0.9-0.2,1.9-0.2,2.9C616.4,88.7,616.6,90.9,617.2,92.5z"/>
		<path class="st35" d="M601.6,106.1c-1.3,6.6-10.6,15-10.6,15c-0.5-1.4-0.9-2.8-1.4-4.2C596.1,112.8,601.6,106.1,601.6,106.1z"/>
		<g>
			<path class="st13" d="M599.3,111.4c-0.6,2.4-3.3,27-3,27.8c0.2,0.5,1.5,6.2,2.8,12.5H587c-1.2-4.1-2-7.4-1.8-9.4     c0.8-8.3-2-34.7-2-34.7s-2.5-16,10.7-18c0,0,7.8,1,8.3,6.8C602.7,102.3,599.9,109,599.3,111.4z"/>
		</g>
		<path class="st34" d="M582.2,114.8l16.4,3.8c0,0,13-25.3,1.3-29.9C587.5,83.8,579.2,100.9,582.2,114.8z"/>
		<g>
			<g>
				<g>
					<path class="st24" d="M620.1,44.1c0,0,14.3,5.2,5.2,29.9c-9.1,24.7-27.5-4.2-24.8-19.4C603.4,39.5,620.1,44.1,620.1,44.1z"/>
				</g>
			</g>
		</g>
		<g>
			<g>
				<g>
					<path class="st33" d="M627.5,59.1c0,0-7.5,6.7-19.6,7c0,0-2.8,6.9-3.3,9c0,0-12-20.5,1.8-30.9       C620.1,33.9,632.6,54.8,627.5,59.1z"/>
				</g>
			</g>
		</g>
		<g>
			<g>
				<g>
					<path class="st24" d="M609.5,67.7c0-1.8-0.9-6-3.7-5c-2.8,1-0.3,9.6,1.5,9.2C607.3,71.8,609.5,72,609.5,67.7z"/>
				</g>
			</g>
		</g>
		<path class="st15" d="M616.5,86.1c-6.7-1.9-9.3-8.3-9.4-8.5c5.5,7.1,9.6,6,9.6,6C616.6,84.6,616.6,85.1,616.5,86.1z"/>
	</g>
	<g>
		<path class="st9" d="M647.5,79.7v2.2h12.9V94h2.2V79.7H647.5z M559.8,94h2.2V81.9h12.9v-2.2h-15.1V94z M660.4,156.5v12.1h-12.9    v2.2h15.1v-14.3H660.4z M562,156.5h-2.2v14.3h15.1v-2.2H562V156.5z"/>
	</g>
	<g>
		<rect x="402.4" y="269.1" class="st9" width="16.2" height="3"/>
	</g>
	<g>
		<path class="st9" d="M459,153.4v2.9h17.3v16.2h2.9v-19.1H459z M341.9,172.5h2.9v-16.2H362v-2.9h-20.2V172.5z M476.3,256v16.2H459    v2.9h20.2V256H476.3z M344.8,256h-2.9v19.1H362v-2.9h-17.3V256z"/>
	</g>
	<g>
		<g>
			<path class="st36" d="M771.9,378.5h-13.7c-0.3-0.5-0.5-1-0.6-1.4c-4.1-9.6-25-31.6-25-31.6s0,0,0,0c0,0,0,0,0,0c0,0,0,0,0,0     c0,0,0,0.1,0,0.1c0,0,0,0.1,0,0.2c0,0,0,0.1,0,0.1c0,0,0,0.1,0,0.1c-0.9,3.2-5.1,19.2-7.2,32.4h-92.6c-0.2-1.2-0.5-2.4-0.8-3.5     c-0.8-3.3-1.4-6.5-1.8-9.6c0-0.2,0-0.3,0-0.5c-0.1-0.6-0.1-1.1-0.2-1.7c-0.8-8.3-0.2-14.7-0.2-15.3c-0.3,0.6-2.1,7.4-4.6,15.9     c-1.3,4.6-2.9,9.8-4.4,14.6h-21.9l27.4-79.2c0.6-0.5,7.7-3.9,12.9-6.4c5.3-2.5,11.7-6.2,17.5-9.4c3-1.6,5.7-3.1,8.2-4.2l0.4-0.2     v0c4-1.8,6.6-3,6.6-3s0,0,0,0c0.1,0,0.7-0.1,1.7-0.2c5.6-0.5,22.9-2.2,28.7-2.5c0.5,0,0.9,0,1.2-0.1c0.3,0,0.5,0,0.6,0     c0.7,0,4.3,1.3,9,3.1c0.2,0.1,0.4,0.1,0.5,0.2c0.2,0.1,0.4,0.2,0.7,0.2c0.4,0.2,0.8,0.3,1.2,0.5c0.8,0.3,1.7,0.7,2.6,1     c0.3,0.1,0.6,0.2,0.9,0.4c9.4,3.7,20.1,8.3,22.7,10.2c1.7,1.2,6.9,11.1,13,23.3C761.3,333.2,769.3,363.5,771.9,378.5z"/>
		</g>
		<g>
			<path class="st13" d="M704,270.7c-0.2,12.4-24.3,19.3-24.3,19.3s-10.1-12.6-7.7-13.8c0.9-0.5,1.3-2.4,1.4-4.5     c0.1-2,0-4.2-0.1-5.6c-0.1-0.9-0.1-1.4-0.1-1.4s3.4-3.6,7.8-8c7.7-7.6,18.2-17.3,18.2-13.4c0,0.2,0,0.4-0.1,0.7     C697.2,252.6,704,270.7,704,270.7z"/>
		</g>
		<g>
			<path class="st15" d="M694.7,252.5C694.7,252.5,694.7,252.5,694.7,252.5c0,0.1-1.1,1.6-2.8,3.8c-3.7,4.7-10.7,12.3-18.5,15.4     c0.1-2,0-4.2-0.1-5.6c-0.8,0-1.6-0.1-2.4-0.3c2.1-3.7,5.2-7.7,5.2-7.7l4.8-1.4L694.7,252.5z"/>
		</g>
		<g>
			<path class="st13" d="M699.3,243.3c-2.1,4.5-4.1,7.8-4.6,9.1c0,0,0,0,0,0c-0.4,0.8-1.4,2.2-2.8,3.8c-4,4.3-11.4,9.9-18.6,9.7     c-0.8,0-1.6-0.1-2.4-0.3c-2.9-0.6-6.4-2-8.3-5.7c-15-29.4-4.1-53.5-4.1-53.5s41.1-11.6,47.5,0.8     C710.5,215.9,704.2,232.7,699.3,243.3z"/>
		</g>
		<g>
			<path class="st37" d="M658.4,206.5c0,0-3.8-0.2-4.8-7.5c-0.9-7.2,1-9.1,1-9.1s17-7.1,23.1-8c6.1-0.9,21.1-1.8,24.6,2.2     c0,0,8.5-2,10.9,12.2c3.7,22.5-12.6,44.3-12.6,44.3s0.1-14.7-3.1-16.6c-3.2-1.9-6,2.7-6,2.7l-6.6,1.2c0,0,10.1-21.7-2-22.5     C670.7,204.4,665.3,207.7,658.4,206.5z"/>
		</g>
		<g>
			<path class="st13" d="M691.6,220.7c0.6-6.5,12.3-8.9,11.5-2.2c-0.8,6.8-6.5,13.3-9.2,13.1C691.3,231.4,691.1,225.7,691.6,220.7z"/>
		</g>
		<g>
			<path class="st38" d="M760.1,312.9c-3.8-12.2-7.1-21.9-8.6-22.9c-2.6-1.8-22.9-7.4-32.5-11.2c-0.3-0.1-0.6-0.2-0.9-0.4     c-0.9-0.3-1.7-0.7-2.6-1c-0.4-0.2-0.8-0.3-1.2-0.5c-0.2-0.1-0.4-0.2-0.7-0.2c-0.2-0.1-0.4-0.1-0.5-0.2c0,0,0,0,0,0     c-0.9,1-5.3,6-10.6,13.6c-10,14.1-22.9,37.1-20.9,58.2c0.6,6.8,1.4,16.5,2.8,27.5c0.1,0.9,0.2,1.7,0.3,2.6h44.9     c0.5-11.5,1.5-26.5,3-32.4c0,0,0-0.1,0-0.1c0,0,0-0.1,0-0.1c0-0.1,0-0.1,0-0.2c0,0,0-0.1,0-0.1c0,0,0,0,0,0c0,0,0,0,0,0     s10.9,17,11.4,32.9h28.3C770.9,363.7,766.6,333.8,760.1,312.9z"/>
		</g>
		<g>
			<path class="st38" d="M665.1,279.5c0,0-3.4,11.3-7.8,39.5c0,0,0,0,0,0c-0.2,0.9-0.3,1.9-0.5,2.9c0,0.1,0,0.2,0,0.3     c-0.1,0.6-0.2,1.3-0.3,2c0,0.1,0,0.2,0,0.2c-0.1,0.4-0.1,0.9-0.2,1.4c-0.2,1.1-0.3,2.3-0.5,3.4c-1.6,11.5-3.8,29.8-6.1,49.3H632     c-1-5.4-1.9-10.3-1.8-13.7c0,0.1-0.1,0.2-0.1,0.2c-1.4,3.9-3,8.2-4.6,12.4c-0.1,0.4-0.3,0.8-0.4,1.1h-30.6l30.5-79.8     c0.6-0.5,8.5-4.7,13.6-7.2c5.4-2.6,12.3-5.8,18.3-8.6c2.9-1.3,5.6-2.6,7.9-3.7L665.1,279.5z"/>
		</g>
		<g>
			<path class="st39" d="M706.4,307.3l-11.7,6.6l5,5.1l-11,59.4h-4.1c-1.5-12-2.4-22.8-3.1-30.1c-3.1-32.7,29.6-69.6,31.6-71.9     c1.6,0.6,3.3,1.3,5,1.9L706.4,307.3z"/>
		</g>
		<g>
			<path class="st39" d="M665.3,279.1c0,0-4.4,14.3-9.5,50c-1.6,11.5-3.8,29.8-6.1,49.3H648l-2.3-56.1l5.6-6.1l-5-6.2L657,283     c2.9-1.3,5.6-2.6,7.9-3.7L665.3,279.1z"/>
		</g>
		<g>
			<path class="st40" d="M713.7,276.6l-9.7-5.9c0,0-0.3,5.3-24.3,19.3l6.8,19.3L713.7,276.6z"/>
		</g>
		<g>
			<path class="st40" d="M673.2,273.4c0,0,0.4,5.8,6.4,16.6l-13.3,17.4l-1-28.2L673.2,273.4z"/>
		</g>
		<g>
			<path class="st41" d="M679.6,290c0,0,2.6,10.3,1.7,13.2c0,0-5.7,2.1-9.8-0.5C671.5,302.7,674.4,295.4,679.6,290z"/>
		</g>
		<g>
			<path class="st41" d="M676.5,325.1c-2.7,18.6-2.7,37.4-1.7,53.3h-11.4c-0.2-2.3-0.3-4.6-0.4-7.1c-2.1-36.8,10.9-69.7,10.9-69.7     l5.8-1.5C679.6,300.3,677.8,316.5,676.5,325.1z"/>
		</g>
		<g>
			<path class="st42" d="M630.6,348c-0.4,8.8-0.4,16.7-0.4,16.7s0,0,0,0c0,0,0,0.3,0,0.7c0-0.1,0-0.3-0.1-0.4     c-1.4,3.9-3,8.2-4.6,12.4c-0.4-4.8-0.5-9.3-0.4-13.5c0.6-24.8,8.4-37.7,8.4-37.7C631.8,330.4,631,339.7,630.6,348z"/>
		</g>
	</g>
	<g>
		<g>
			<polygon class="st43" points="524,378.6 487.6,398.6 451,341 495.3,325.7    "/>
		</g>
		<g>
			<polygon class="st1" points="521.7,376.8 487.7,395.6 453.5,341.7 494.8,327.4    "/>
		</g>
		<g>
			<path class="st13" d="M534.2,366.8c0,0-6.3-3-9.1-4.6c-2.8-1.6-9.9-3.8-10.5-4.3c-0.6-0.5-21.2-1.8-22.5-2.9     c-1.3-1.1-2.5,2.5,2.9,3.7c5.3,1.2,12.8,4,13.2,6.1c0.4,2.1-5.5,2.6-6.1,4.3c-0.6,1.7,0.2,1.3,1,1.7c0.8,0.4,7-3,9.7-2.1     c2.7,1,6.9-0.4,8.9,0.3c2.1,0.7,12.2,4.1,12.2,4.1L534.2,366.8z"/>
		</g>
		<g>
			<path class="st13" d="M485.8,391.4c0,0-5.3-4.8-7.9-6.8c-2.6-2-7.4-7.9-8.1-8.2c-0.7-0.3-9.9-19.3-11.5-20.1     c-1.5-0.8,1.4-3.3,4.6,1.3c3.2,4.6,8.8,10.5,10.9,10.1c2.1-0.4,0.3-6.2,1.7-7.4c1.4-1.2,1.3-0.4,2,0.3c0.7,0.7-0.1,7.8,1.8,10     c2,2.2,2.3,6.6,3.8,8.3c1.5,1.7,8.6,9.9,8.6,9.9L485.8,391.4z"/>
		</g>
		<g>
			<path class="st44" d="M600.5,647.5c0,0,1.2,8,1.3,9.2c0.1,1.2,12.8-0.7,12.8-0.7l1-9.5C615.6,646.5,602.1,646.4,600.5,647.5z"/>
		</g>
		<g>
			<path class="st43" d="M601.7,655.7c0,0-4,4.8-7.9,6.9c-3.9,2.1-10,2.9-12.3,5.1c-1.7,1.6-6,8.3,10.1,8.2     c16.1-0.1,23.9,1,25.6-1.6c1.7-2.6-2.5-19.1-2.5-19.1S610.9,656.5,601.7,655.7z"/>
		</g>
		<g>
			<path class="st44" d="M509.7,647.5c0,0,1.2,8,1.3,9.2c0.1,1.2,12.8-0.7,12.8-0.7l1-9.5C524.9,646.5,511.3,646.4,509.7,647.5z"/>
		</g>
		<g>
			<path class="st43" d="M510.9,655.7c0,0-4,4.8-7.9,6.9c-3.9,2.1-18.2,3.8-20.5,6c-1.7,1.6-4.4,7.9,18.3,7.3     c16.1-0.4,23.9,1,25.6-1.6c1.7-2.6-2.5-19.1-2.5-19.1S520.3,656.6,510.9,655.7z"/>
		</g>
		<g>
			<path class="st43" d="M590,442.1c0,0,11.9,18.9,11,36c-0.9,17.1,4.3,35.8,6.1,53.6c2,19.9,10.2,67,10.4,77.7     c0.3,10.7-1.3,44.7-1.3,44.7l-16.3,0.4c0,0-13.7-82.4-17.3-90.8c-3.6-8.4-21.2-68.4-21.8-75.1C560.4,481.8,590,442.1,590,442.1z"/>
		</g>
		<g>
			<path class="st43" d="M527.3,444.6c0,0-9,46.9-10.2,57.3c-1.2,10.5-2,50.6-2.6,57.2c-0.6,6.5-3.9,85.6-7.1,95.3h20.9     c0,0,16-57.5,16-84.6c0-27.2,12.4-59.1,20.4-77c8-17.9,26.3-18.4,31.2-51.6C596,441.1,534,434.1,527.3,444.6z"/>
		</g>
		<g>
			<path class="st13" d="M570.1,283.1c0,0-16-6-23.3,6.2s-6.7,36.5,1.4,39.5c8.1,3,20.2,1.4,24.3-6.2c4.1-7.6,7.8-18.6,7.7-26     C580,289.3,574.3,285.2,570.1,283.1z"/>
		</g>
		<g>
			<path class="st13" d="M549.9,329.3c0,0,0.7,4.3-0.4,6.4c-1.1,2.1,20.7,2.2,20.7,2.2s1.8-11.6,5.1-21.3     C578.7,306.8,549.9,329.3,549.9,329.3z"/>
		</g>
		<g>
			<path class="st45" d="M575.3,316.6c0,0-1.5,2.5-7.6,1.5c-6.1-1-13.6-9.1-16.2-10c-2.6-0.9-2.6-2.4-2.6-2.4l-1.6,2.3l-2.7,0.2     c0,0,2.5-7.3-1.3-10.3c-3.7-3,3.9-23.7,23.6-16.8c0,0,15.1,4.2,14.6,12.8C580.9,302.5,578.7,312.3,575.3,316.6z"/>
		</g>
		<g>
			<path class="st46" d="M548.2,335.5c0,0,0.1-4.1,1.9-4.4c1.8-0.4,20.3-2.2,22.6-1.3v4.7C572.7,334.5,568.3,337.2,548.2,335.5z"/>
		</g>
		<g>
			<path class="st13" d="M549.3,302.6c0.3-1.4,4-5.6,5.4-1.2s-2.1,10.4-4.1,9.8C548.7,310.8,548.4,306.2,549.3,302.6z"/>
		</g>
		<g>
			<path class="st47" d="M474.9,383.5C474.9,383.5,474.9,383.5,474.9,383.5C474.8,383.5,474.8,383.5,474.9,383.5z"/>
		</g>
		<g>
			<path class="st48" d="M603.4,487.1c0,0-9.8,2.9-26.5,4.7c-16.7,1.8-58.5-0.7-58.7-2.6c-0.3-2,9-73.5,8.5-77.2     c-0.5-3.7-0.8-16.8-0.8-16.8c-0.2,3.6-3.9,18.3-8.3,26.3c-1.6,2.9-7,12-9.5,9.9c-12.5-10-31.9-47.6-33.1-47.9     c1-0.4,9.2-4.2,10.3-4.6c1-0.3,10,9.2,15.5,15.1c2.4,2.6,4.2,4.6,4.2,4.6c1.6-3.6,7.3-25.9,9.1-33.7c4-17.5,3.4-18.2,3.4-18.2     c12.2-3.7,30.8-11.2,30.8-11.2l24.5-1c0,0,22.5,4.9,31.3,8.9c0.8,0.4,0.8,20,3.1,25.2l-7.3,15.5c0,0-4.2,30.7-5.1,44.3     C594.3,434.7,603.4,487.1,603.4,487.1z"/>
		</g>
		<g>
			<path class="st48" d="M608.2,394.2c-0.6,2.1-3.5,3.8-5.4,4.6c-1.2,0.5-2.6,0.6-3.9,0.4l-1-0.2v0l-16.8-3.1     c0,0-3.7-42.3,22.9-52.4C604.7,343.7,614,375.3,608.2,394.2z"/>
		</g>
		<g>
			<path class="st49" d="M602.7,398.8L602.7,398.8c-1.2,0.5-2.6,0.6-3.9,0.4l-1-0.2v0l1.7-21.6L602.7,398.8z"/>
		</g>
		<g>
			<path class="st49" d="M504.9,398.6l-2.1,8.7c0,0-2.2-8.7-2.1-13.2C503.2,396.7,504.9,398.6,504.9,398.6z"/>
		</g>
		<g>
			<path class="st45" d="M574.7,284.5c0,0,20.9-2.6,0.4,32.4L574.7,284.5z"/>
		</g>
		<g>
			<polygon class="st43" points="467.9,337.9 465.7,334.3 482.5,328.5 484.6,332.1    "/>
		</g>
	</g>
	<g>
		<g>
			<linearGradient id="SVGID_13_" gradientUnits="userSpaceOnUse" x1="463.487" y1="48.9433" x2="483.8685" y2="48.9433">
				<stop offset="0" style="stop-color:#D1D7E0"/>
				<stop offset="1" style="stop-color:#EBEBFF"/>
			</linearGradient>
			<path class="st50" d="M482.8,52h-18.2c-0.6,0-1.1-0.5-1.1-1.1V47c0-0.6,0.5-1.1,1.1-1.1h18.2c0.6,0,1.1,0.5,1.1,1.1v3.9     C483.9,51.5,483.4,52,482.8,52z"/>
		</g>
		<g>
			<linearGradient id="SVGID_14_" gradientUnits="userSpaceOnUse" x1="463.487" y1="63.672" x2="483.8685" y2="63.672">
				<stop offset="0" style="stop-color:#D1D7E0"/>
				<stop offset="1" style="stop-color:#EBEBFF"/>
			</linearGradient>
			<path class="st51" d="M482.8,66.7h-18.2c-0.6,0-1.1-0.5-1.1-1.1v-3.9c0-0.6,0.5-1.1,1.1-1.1h18.2c0.6,0,1.1,0.5,1.1,1.1v3.9     C483.9,66.2,483.4,66.7,482.8,66.7z"/>
		</g>
		<g>
			<linearGradient id="SVGID_15_" gradientUnits="userSpaceOnUse" x1="463.487" y1="78.4009" x2="483.8685" y2="78.4009">
				<stop offset="0" style="stop-color:#D1D7E0"/>
				<stop offset="1" style="stop-color:#EBEBFF"/>
			</linearGradient>
			<path class="st52" d="M482.8,81.5h-18.2c-0.6,0-1.1-0.5-1.1-1.1v-3.9c0-0.6,0.5-1.1,1.1-1.1h18.2c0.6,0,1.1,0.5,1.1,1.1v3.9     C483.9,81,483.4,81.5,482.8,81.5z"/>
		</g>
		<g>
			<linearGradient id="SVGID_16_" gradientUnits="userSpaceOnUse" x1="492.2841" y1="48.9433" x2="498.0831" y2="48.9433">
				<stop offset="0" style="stop-color:#D1D7E0"/>
				<stop offset="1" style="stop-color:#EBEBFF"/>
			</linearGradient>
			<path class="st53" d="M497,52h-3.6c-0.6,0-1.1-0.5-1.1-1.1V47c0-0.6,0.5-1.1,1.1-1.1h3.6c0.6,0,1.1,0.5,1.1,1.1v3.9     C498.1,51.5,497.6,52,497,52z"/>
		</g>
		<g>
			<linearGradient id="SVGID_17_" gradientUnits="userSpaceOnUse" x1="492.2841" y1="63.672" x2="498.0831" y2="63.672">
				<stop offset="0" style="stop-color:#D1D7E0"/>
				<stop offset="1" style="stop-color:#EBEBFF"/>
			</linearGradient>
			<path class="st54" d="M497,66.7h-3.6c-0.6,0-1.1-0.5-1.1-1.1v-3.9c0-0.6,0.5-1.1,1.1-1.1h3.6c0.6,0,1.1,0.5,1.1,1.1v3.9     C498.1,66.2,497.6,66.7,497,66.7z"/>
		</g>
		<g>
			<linearGradient id="SVGID_18_" gradientUnits="userSpaceOnUse" x1="492.2841" y1="78.4009" x2="498.0831" y2="78.4009">
				<stop offset="0" style="stop-color:#D1D7E0"/>
				<stop offset="1" style="stop-color:#EBEBFF"/>
			</linearGradient>
			<path class="st55" d="M497,81.5h-3.6c-0.6,0-1.1-0.5-1.1-1.1v-3.9c0-0.6,0.5-1.1,1.1-1.1h3.6c0.6,0,1.1,0.5,1.1,1.1v3.9     C498.1,81,497.6,81.5,497,81.5z"/>
		</g>
	</g>
	<g>
		<linearGradient id="SVGID_19_" gradientUnits="userSpaceOnUse" x1="411.5369" y1="376.9561" x2="439.3842" y2="376.9561">
			<stop offset="0" style="stop-color:#D1D7E0"/>
			<stop offset="1" style="stop-color:#EBEBFF"/>
		</linearGradient>
		<polygon class="st56" points="418.1,383.7 439.4,383.7 432.9,370.2 411.5,370.2   "/>
		<linearGradient id="SVGID_20_" gradientUnits="userSpaceOnUse" x1="401.5602" y1="376.9561" x2="413.1667" y2="376.9561">
			<stop offset="0" style="stop-color:#D1D7E0"/>
			<stop offset="1" style="stop-color:#EBEBFF"/>
		</linearGradient>
		<polygon class="st57" points="408.1,383.7 413.2,383.7 406.6,370.2 401.6,370.2   "/>
	</g>
</g>
</svg>